<svg width="309" height="181" viewBox="0 0 309 181" fill="none" xmlns="http://www.w3.org/2000/svg">
<g clip-path="url(#clip0_63971_54)">
<path fill-rule="evenodd" clip-rule="evenodd" d="M3.52319 21.2858V83.8814H26.7373C26.7373 83.8814 42.7477 85.2516 48.9899 75.9268C48.9899 75.9268 55.5976 68.1929 50.3564 56.9205C48.1309 54.0324 45.0694 51.9116 41.5948 50.8511C41.5948 50.8511 46.358 47.8108 47.6964 44.7309C48.648 42.7399 49.2692 40.6055 49.5353 38.4124C49.8525 36.1251 49.6172 33.7946 48.8493 31.6184C48.0282 29.5114 46.6938 27.6461 44.969 26.1945C40.7457 22.4521 34.228 21.4953 20.6358 21.2065C16.2212 21.1216 10.429 21.0876 3.52319 21.2858ZM20.1828 31.1542C20.0758 31.1542 20.1828 42.7767 20.1828 42.7767L28.5643 42.6302C28.5643 42.6302 33.237 41.9876 33.3497 36.9937C33.4625 31.9997 29.5113 31.453 29.7536 31.5432C26.5728 31.2396 23.3778 31.1098 20.1828 31.1542ZM20.0761 68.0678C20.0761 68.0678 20.1832 54.9348 20.0761 54.8277L30.7347 55.1771C30.7347 55.1771 36.0838 55.2279 36.2641 61.5577C36.4445 67.8875 28.6379 68.2877 28.6379 68.2877L20.0761 68.0678Z" fill="black"/>
<path d="M113.227 42.5477L121.163 37.6204C118.187 33.5723 111.063 24.8489 101.915 22.4412C100.579 22.0885 99.136 21.8477 99.136 21.8477C90.7996 19.7817 83.8779 22.8332 82.2659 23.4267C80.1916 24.1994 72.526 27.3069 67.78 34.2722C66.6784 35.9317 65.7169 37.679 64.9054 39.4961C63.7449 42.1533 62.8793 44.9282 62.3239 47.7716C62.1401 48.5527 62.0008 49.3434 61.9068 50.1401C61.7602 51.581 61.7602 53.0329 61.9068 54.4738C62.0712 56.8086 62.4696 59.1213 63.0961 61.3775C63.5871 63.2087 64.2514 64.9897 65.0801 66.6966C66.2704 69.1418 67.8079 71.4046 69.6457 73.4156C71.661 75.5995 74.0032 77.4616 76.5899 78.9363C79.4983 80.6312 82.6412 81.8933 85.9183 82.6821C89.1487 83.5468 92.4998 83.8797 95.8386 83.6676C99.1891 83.4209 102.475 82.6224 105.562 81.3047C108.193 80.2827 110.661 78.8871 112.889 77.1614C114.713 75.6979 116.376 74.0462 117.849 72.2342C119.474 70.2759 120.998 68.2371 122.415 66.1255C122.899 65.4368 123.508 64.5634 124.202 63.3652C124.915 62.1757 125.514 60.9214 125.988 59.6194C126.231 58.9082 126.429 58.1826 126.58 57.4469C127.243 54.6954 128.106 51.9951 129.162 49.3674C130.347 46.3366 131.95 43.4838 133.925 40.8903C135.813 38.4659 138.778 34.6529 144.245 32.4133C147.664 30.9963 151.391 30.4701 155.072 30.8846C158.753 31.2991 162.267 32.6405 165.28 34.7817C167.731 36.3763 169.825 38.4558 171.43 40.8903C172.601 42.6438 173.493 44.5664 174.073 46.5902C174.733 49.1636 174.924 51.8336 174.637 54.4738C174.368 57.1439 173.628 59.7462 172.45 62.1614C171.308 64.7909 169.566 67.1208 167.362 68.967C165.159 70.8132 162.553 72.1253 159.751 72.7997C155.483 74.0423 150.955 74.1101 146.652 72.9956C143.358 72.0978 140.308 70.4815 137.724 68.2644C135.803 66.5823 134.192 64.5817 132.961 62.3517L125.036 67.4973C125.115 67.6373 125.334 68.018 125.628 68.4828C128.288 72.4171 131.652 75.8331 135.553 78.5612C136.117 78.9531 136.743 79.345 136.743 79.345C136.743 79.345 138.36 80.3865 139.719 81.12C142.532 82.4581 145.549 83.3246 148.647 83.6843C151.882 84.0981 155.16 84.032 158.376 83.4884C161.268 83.0611 164.078 82.1963 166.706 80.924C169.197 79.7091 171.479 78.1125 173.47 76.1927C173.498 76.1927 173.577 75.9856 173.673 75.9968C173.769 76.008 173.842 76.3103 173.87 76.5903C173.899 76.8702 174.011 77.2286 174.068 77.5757C174.167 78.1613 174.233 78.752 174.265 79.345C174.316 79.5466 174.378 79.8154 174.462 80.1345C174.598 80.6384 174.75 81.1703 174.862 81.5175C175.128 82.3304 175.46 83.1206 175.855 83.8803H187.759L187.364 83.3204C187.02 82.7101 186.688 82.055 186.372 81.3495C185.268 78.8497 184.597 76.1824 184.388 73.4604C184.281 71.6463 184.163 68.8355 184.191 65.3808C184.191 62.1782 184.343 61.0863 184.388 58.2812C184.461 53.6339 184.501 50.7784 183.988 47.6429C183.311 43.5208 181.829 39.5701 179.625 36.0135C177.118 31.9874 173.717 28.5841 169.683 26.0639C165.632 23.63 161.097 22.1014 156.392 21.5846C151.921 20.9702 147.369 21.3644 143.073 22.738C139.359 23.9942 135.918 25.9336 132.927 28.4547C130.469 30.4135 128.269 32.6708 126.377 35.1736C124.764 37.3318 123.369 39.6423 122.212 42.0717C121.22 44.065 120.476 45.9911 119.038 49.7593C116.835 55.5208 117.218 55.1121 116.26 57.2509C114.903 60.548 113.027 63.6098 110.702 66.3215C109.045 68.3471 107.046 70.0712 104.795 71.4167C99.8226 74.0904 94.058 74.9294 88.5224 73.7851C85.2646 72.9603 82.2271 71.4393 79.622 69.3282C77.0169 67.2171 74.9069 64.5668 73.4391 61.5622C72.1929 58.988 71.5126 56.1796 71.4436 53.324C71.3746 50.4683 71.9184 47.6308 73.0389 45.0001C74.1576 41.867 75.9924 39.0343 78.3992 36.7246C80.8725 34.413 83.8659 32.7218 87.1302 31.7918C89.391 31.1794 91.7329 30.915 94.0744 31.0079C97.8298 31.1351 101.501 32.1485 104.784 33.9642C108.331 36.0107 111.25 38.978 113.227 42.5477Z" fill="#0066CC"/>
<path fill-rule="evenodd" clip-rule="evenodd" d="M197.064 83.9521V21.614C202.323 21.309 206.765 21.1848 210.113 21.1735C218.618 21.0379 222 21.3373 223.691 21.5123C227 21.8512 229.688 22.3425 231.509 22.7096C233.155 23.1445 239.231 24.9461 242.782 30.8365C245.401 35.1824 245.29 39.5056 245.228 41.9237L245.228 41.9284C245.21 45.7955 244.157 49.5869 242.179 52.9073C240.45 55.7524 238.077 58.1495 235.252 59.9047L249.162 83.8392L230.162 83.9521C226.233 76.5764 224.48 72.9337 223.618 70.9627C223.359 70.3799 223.067 69.8126 222.776 69.2459C222.457 68.6265 222.139 68.0079 221.865 67.3708C221.706 67.0032 221.566 66.6639 221.436 66.3503C220.806 64.8284 220.428 63.9154 219.419 63.3441C218.826 63.0566 218.182 62.8933 217.525 62.864C216.136 62.6984 214.732 62.7155 213.348 62.9148C213.358 66.4909 213.288 70.1428 213.218 73.7912C213.153 77.203 213.088 80.6116 213.088 83.9521H197.064ZM212.585 49.3321C212.634 44.2041 212.681 39.0723 212.726 33.9368L222.59 33.9763C223.535 34.0565 224.452 34.3378 225.279 34.8015C226.107 35.2651 226.826 35.9004 227.389 36.6649C227.952 37.4293 228.345 38.3054 228.543 39.2345C228.741 40.1635 228.739 41.1243 228.537 42.0524C228.174 44.2033 227.037 46.1464 225.341 47.5136C224.435 48.2983 223.397 48.9142 222.275 49.3321H212.585Z" fill="black"/>
<path fill-rule="evenodd" clip-rule="evenodd" d="M259.656 83.7813L259.427 21.6018C266.667 20.8992 273.958 20.9973 281.178 21.8943C288.562 22.8279 292.036 24.1495 294.917 25.7918C298.043 27.4984 300.805 29.8376 303.037 32.67C308.463 39.7625 308.33 48.0941 308.265 52.195L308.265 52.2135L308.263 52.292C308.175 56.8624 307.935 69.2997 299.007 77.1281C292.755 82.5922 284.844 83.49 282.297 83.7792L282.278 83.7813C280.426 83.9894 277.001 83.9669 270.226 83.9219C265.788 83.8938 262.128 83.8319 259.656 83.7813ZM273.315 71.0014C272.881 71.0014 273.315 34.8826 273.315 34.8826C275.102 34.6346 280.327 34.1498 284.994 37.4472C286.069 38.1989 287.031 39.1005 287.851 40.1245C290.983 44.1202 290.846 48.9317 290.711 53.6577L290.709 53.7198C290.653 56.1198 290.37 58.509 289.864 60.8556C286.845 71.8942 274.944 71.1077 273.457 71.0094C273.383 71.0045 273.335 71.0014 273.315 71.0014Z" fill="black"/>
</g>
<path d="M16.9467 165.127H4.96774V113.794H16.9467V165.127ZM71.6656 113.794V165.127H65.4647C64.5487 165.127 63.7736 164.986 63.1394 164.704C62.5287 164.399 61.918 163.882 61.3073 163.154L37.1028 132.537C37.1968 133.453 37.2555 134.346 37.279 135.215C37.3259 136.06 37.3494 136.859 37.3494 137.611V165.127H26.8502V113.794H33.1216C33.6383 113.794 34.0728 113.817 34.4252 113.864C34.7775 113.911 35.0946 114.005 35.3764 114.146C35.6583 114.263 35.9284 114.44 36.1868 114.674C36.4451 114.909 36.7387 115.226 37.0676 115.626L61.4835 146.454C61.366 145.467 61.2838 144.516 61.2369 143.6C61.1899 142.661 61.1664 141.78 61.1664 140.958V113.794H71.6656ZM93.6042 122.954V135.955H111.15V145.15H93.6042V165.127H81.6253V113.794H114.673V122.954H93.6042ZM133.516 165.127H121.537V113.794H133.516V165.127ZM188.235 113.794V165.127H182.034C181.118 165.127 180.343 164.986 179.708 164.704C179.098 164.399 178.487 163.882 177.876 163.154L153.672 132.537C153.766 133.453 153.824 134.346 153.848 135.215C153.895 136.06 153.918 136.859 153.918 137.611V165.127H143.419V113.794H149.691C150.207 113.794 150.642 113.817 150.994 113.864C151.346 113.911 151.664 114.005 151.945 114.146C152.227 114.263 152.497 114.44 152.756 114.674C153.014 114.909 153.308 115.226 153.637 115.626L178.052 146.454C177.935 145.467 177.853 144.516 177.806 143.6C177.759 142.661 177.735 141.78 177.735 140.958V113.794H188.235ZM210.173 165.127H198.194V113.794H210.173V165.127ZM256.965 123.236H242.52V165.127H230.611V123.236H216.166V113.794H256.965V123.236ZM287.608 145.608V165.127H275.7V145.608L257.097 113.794H267.596C268.63 113.794 269.44 114.04 270.027 114.534C270.638 115.003 271.143 115.614 271.542 116.366L278.8 131.304C279.411 132.478 279.963 133.582 280.456 134.616C280.949 135.626 281.384 136.624 281.76 137.611C282.112 136.601 282.511 135.591 282.957 134.581C283.427 133.547 283.967 132.455 284.578 131.304L291.765 116.366C291.93 116.06 292.13 115.755 292.364 115.45C292.599 115.144 292.869 114.874 293.175 114.639C293.504 114.381 293.868 114.181 294.267 114.04C294.69 113.876 295.148 113.794 295.641 113.794H306.211L287.608 145.608Z" fill="black"/>
<defs>
<clipPath id="clip0_63971_54">
<rect width="308.282" height="105.697" fill="white"/>
</clipPath>
</defs>
</svg>
